C:\Users\r0593348\3dpredictsim\Results\Batchsim_tmt_linear\Pog_s1_tmt_aCst_d02_k1000_ig24_pas_GRF.mot
nRows=10
nColumns=19

name C:\Users\r0593348\3dpredictsim\Results\Batchsim_tmt_linear\Pog_s1_tmt_aCst_d02_k1000_ig24_pas_GRF.mot
datacolumns 19
datarows 10
range 0.0000000000 0.0995046936
endheader
time 	ground_force_vx	ground_force_vy	ground_force_vz	ground_force_px	ground_force_py	ground_force_pz	1_ground_force_vx	1_ground_force_vy	1_ground_force_vz	1_ground_force_px	1_ground_force_py	1_ground_force_pz	ground_torque_x	ground_torque_y	ground_torque_z	1_ground_torque_x	1_ground_torque_y	1_ground_torque_z
        0.0000000000	      -78.0974054830	       63.9388370140	       29.6790792773	        0.1671968800	        0.0000000000	        0.0381612362	       98.3962560986	      491.1947474635	       -3.8292555514	       -0.3171348504	        0.0000000000	       -0.0337875081	        0.0000000000	        0.0000000000	        0.0000000000	        0.0000000000	        0.0000000000	        0.0000000000	
        0.0110560771	     -124.2885470536	      141.5811609511	       74.4266245492	        0.1747920511	        0.0000000000	        0.0357730451	       80.0188805218	      408.7251262220	       -8.5172660683	       -0.3133593469	        0.0000000000	       -0.0326855158	        0.0000000000	        0.0000000000	        0.0000000000	        0.0000000000	        0.0000000000	        0.0000000000	
        0.0221121541	      -50.3484394940	      285.8439792187	       34.0998578060	        0.1808720859	        0.0000000000	        0.0333519884	       60.6153749533	      319.5235636921	       -9.4800353209	       -0.3075373099	        0.0000000000	       -0.0305014959	        0.0000000000	        0.0000000000	        0.0000000000	        0.0000000000	        0.0000000000	        0.0000000000	
        0.0331682312	      -45.8050001933	      456.7741385192	        4.0243785112	        0.1853127965	        0.0000000000	        0.0335507706	       31.0681405919	      213.6579316758	       -5.8822089119	       -0.2961948641	        0.0000000000	       -0.0252677488	        0.0000000000	        0.0000000000	        0.0000000000	        0.0000000000	        0.0000000000	        0.0000000000	
        0.0442243083	      -79.3369941396	      665.2364124168	       -7.4802207154	        0.1938926295	        0.0000000000	        0.0360944370	       10.6228278039	      139.6101291240	       -8.5021315389	       -0.2805268324	        0.0000000000	       -0.0170861699	        0.0000000000	        0.0000000000	        0.0000000000	        0.0000000000	        0.0000000000	        0.0000000000	
        0.0552803853	     -104.8958978090	      806.3671257953	      -13.0258496302	        0.2000069508	        0.0000000000	        0.0378632186	        1.1064988909	      111.9251429063	      -10.3312666746	       -0.2810461978	        0.0000000000	       -0.0175284949	        0.0000000000	        0.0000000000	        0.0000000000	        0.0000000000	        0.0000000000	        0.0000000000	
        0.0663364624	     -113.4288023477	      861.9558185301	      -14.3140613503	        0.2040594949	        0.0000000000	        0.0389054690	       -2.7085273118	       74.0456380698	       -9.6242190264	       -0.2805823333	        0.0000000000	       -0.0175905790	        0.0000000000	        0.0000000000	        0.0000000000	        0.0000000000	        0.0000000000	        0.0000000000	
        0.0773925395	     -110.1724616972	      862.0364562451	      -14.1763127760	        0.2071989102	        0.0000000000	        0.0395045044	       -8.6526823762	       30.9971301435	       -5.5800195276	       -0.2809219474	        0.0000000000	       -0.0175196420	        0.0000000000	        0.0000000000	        0.0000000000	        0.0000000000	        0.0000000000	        0.0000000000	
        0.0884486165	     -101.1980868688	      841.3075965375	      -14.2572280189	        0.2103567085	        0.0000000000	        0.0397982423	        0.1207568693	       -0.1208727914	        0.0032370432	        0.0000000000	        0.0000000000	        0.0000000000	        0.0000000000	        0.0000000000	        0.0000000000	        0.0000000000	        0.0000000000	        0.0000000000	
        0.0995046936	      -88.8788224203	      807.8195122823	      -14.9006996899	        0.2136490047	        0.0000000000	        0.0399083940	        0.0001575798	       -0.0001298346	       -0.0000086723	        0.0000000000	        0.0000000000	        0.0000000000	        0.0000000000	        0.0000000000	        0.0000000000	        0.0000000000	        0.0000000000	        0.0000000000	
